<svg xmlns="http://www.w3.org/2000/svg" xmlns:xlink="http://www.w3.org/1999/xlink" viewBox="0 0 600 600"><defs><style>.cls-1{isolation:isolate;}.cls-2{fill:#475086;}.cls-3{fill:#fff;}.cls-4{fill:#d4145a;}.cls-5{fill:#fcee21;}.cls-6{fill:lime;}.cls-7{fill:aqua;}.cls-8{fill:url(#Summer);}.cls-9{fill:#2e3192;}.cls-10{fill:#ed1c24;}.cls-11{fill:#f0f;}.cls-12{opacity:0.25;fill:url(#radial-gradient);}.cls-12,.cls-13,.cls-14,.cls-15,.cls-17,.cls-18,.cls-19,.cls-20,.cls-21,.cls-22,.cls-23,.cls-24,.cls-25,.cls-26{mix-blend-mode:screen;}.cls-13{fill:url(#radial-gradient-2);}.cls-14{fill:url(#radial-gradient-3);}.cls-15{opacity:0.2;fill:url(#radial-gradient-4);}.cls-16,.cls-20{fill:none;}.cls-17{opacity:0.15;fill:url(#radial-gradient-5);}.cls-18,.cls-21{opacity:0.5;}.cls-18{fill:url(#radial-gradient-6);}.cls-19{fill:url(#radial-gradient-7);}.cls-20{stroke:#fff;stroke-miterlimit:10;stroke-width:2px;opacity:0.03;}.cls-21{fill:url(#radial-gradient-8);}.cls-22{fill:url(#radial-gradient-9);}.cls-23{fill:url(#radial-gradient-10);}.cls-24{fill:url(#radial-gradient-11);}.cls-25{fill:url(#radial-gradient-12);}.cls-26{fill:url(#radial-gradient-13);}</style><radialGradient id="Summer" cx="185.5" cy="376.5" r="12.5" gradientUnits="userSpaceOnUse"><stop offset="0" stop-color="#fff"/><stop offset="0.09" stop-color="#ffedd8"/><stop offset="0.21" stop-color="#ffd5a7"/><stop offset="0.33" stop-color="#ffc17d"/><stop offset="0.46" stop-color="#ffb05b"/><stop offset="0.59" stop-color="#ffa340"/><stop offset="0.72" stop-color="#ff9a2d"/><stop offset="0.86" stop-color="#ff9522"/><stop offset="1" stop-color="#ff931e"/></radialGradient><radialGradient id="radial-gradient" cx="447" cy="471.75" r="64.41" gradientUnits="userSpaceOnUse"><stop offset="0.1"/><stop offset="0.15" stop-color="#191407"/><stop offset="0.21" stop-color="#2f260d"/><stop offset="0.27" stop-color="#403312"/><stop offset="0.36" stop-color="#4b3d16"/><stop offset="0.47" stop-color="#524217"/><stop offset="0.8" stop-color="#544418"/><stop offset="1"/></radialGradient><radialGradient id="radial-gradient-2" cx="363.27" cy="399.79" r="2.15" gradientUnits="userSpaceOnUse"><stop offset="0" stop-color="#cae095"/><stop offset="0.06" stop-color="#a8ba7c"/><stop offset="0.14" stop-color="#818f5f"/><stop offset="0.22" stop-color="#5e6845"/><stop offset="0.31" stop-color="#414830"/><stop offset="0.4" stop-color="#292e1e"/><stop offset="0.5" stop-color="#171911"/><stop offset="0.62" stop-color="#0a0b07"/><stop offset="0.76" stop-color="#020302"/><stop offset="1"/></radialGradient><radialGradient id="radial-gradient-3" cx="367" cy="403" r="2.15" xlink:href="#radial-gradient-2"/><radialGradient id="radial-gradient-4" cx="370.2" cy="405.75" r="16.1" gradientUnits="userSpaceOnUse"><stop offset="0.05"/><stop offset="0.09" stop-color="#030904"/><stop offset="0.3" stop-color="#133315"/><stop offset="0.48" stop-color="#1f5222"/><stop offset="0.64" stop-color="#256529"/><stop offset="0.75" stop-color="#286c2c"/><stop offset="0.79" stop-color="#4c6c19"/><stop offset="0.84" stop-color="#6e6b07"/><stop offset="0.86" stop-color="#7b6b00"/><stop offset="0.89" stop-color="#776800"/><stop offset="0.91" stop-color="#6d5e00"/><stop offset="0.94" stop-color="#5a4f00"/><stop offset="0.96" stop-color="#413800"/><stop offset="0.98" stop-color="#201c00"/><stop offset="1"/></radialGradient><radialGradient id="radial-gradient-5" cx="431" cy="458" r="42.94" gradientUnits="userSpaceOnUse"><stop offset="0" stop-color="#230000"/><stop offset="0.73" stop-color="#93432a"/><stop offset="1" stop-color="#230000"/></radialGradient><radialGradient id="radial-gradient-6" cx="431" cy="458" r="21.47" gradientUnits="userSpaceOnUse"><stop offset="0.15" stop-color="#fff"/><stop offset="0.21" stop-color="#e2d1d2"/><stop offset="0.29" stop-color="#bf9a9c"/><stop offset="0.36" stop-color="#a67276"/><stop offset="0.42" stop-color="#975a5e"/><stop offset="0.45" stop-color="#915155"/><stop offset="0.56" stop-color="#6c3638"/><stop offset="0.68" stop-color="#44191a"/><stop offset="0.79" stop-color="#2c0707"/><stop offset="0.85" stop-color="#230000"/><stop offset="0.86" stop-color="#270201"/><stop offset="0.86" stop-color="#340805"/><stop offset="0.87" stop-color="#48120b"/><stop offset="0.88" stop-color="#652114"/><stop offset="0.89" stop-color="#8b331f"/><stop offset="0.9" stop-color="#b8492d"/><stop offset="0.9" stop-color="#d65836"/><stop offset="0.9" stop-color="#c95232"/><stop offset="0.91" stop-color="#9d3c25"/><stop offset="0.93" stop-color="#782a1a"/><stop offset="0.94" stop-color="#591b10"/><stop offset="0.95" stop-color="#410f09"/><stop offset="0.97" stop-color="#300604"/><stop offset="0.98" stop-color="#260201"/><stop offset="1" stop-color="#230000"/></radialGradient><radialGradient id="radial-gradient-7" cx="431" cy="458" r="17.89" gradientUnits="userSpaceOnUse"><stop offset="0.15" stop-color="#fff"/><stop offset="0.28" stop-color="#c2c2c2"/><stop offset="0.43" stop-color="#888"/><stop offset="0.56" stop-color="#575757"/><stop offset="0.69" stop-color="#313131"/><stop offset="0.81" stop-color="#161616"/><stop offset="0.92" stop-color="#060606"/><stop offset="1"/></radialGradient><radialGradient id="radial-gradient-8" cx="367" cy="403" r="32.21" gradientUnits="userSpaceOnUse"><stop offset="0.64"/><stop offset="0.72" stop-color="#000200"/><stop offset="0.75" stop-color="#000902"/><stop offset="0.77" stop-color="#001405"/><stop offset="0.78" stop-color="#002509"/><stop offset="0.8" stop-color="#003b0e"/><stop offset="0.8" stop-color="#004510"/><stop offset="0.82" stop-color="#182809"/><stop offset="0.83" stop-color="#2b1204"/><stop offset="0.85" stop-color="#360501"/><stop offset="0.86" stop-color="#3a0000"/><stop offset="0.87" stop-color="#250000"/><stop offset="0.89" stop-color="#140000"/><stop offset="0.9" stop-color="#090000"/><stop offset="0.93" stop-color="#020000"/><stop offset="1"/></radialGradient><radialGradient id="radial-gradient-9" cx="376.55" cy="411.2" r="8.23" gradientUnits="userSpaceOnUse"><stop offset="0.1" stop-color="#2c1725"/><stop offset="0.2" stop-color="#22121d"/><stop offset="0.46" stop-color="#0f080d"/><stop offset="0.72" stop-color="#040203"/><stop offset="1"/></radialGradient><radialGradient id="radial-gradient-10" cx="442.83" cy="468.17" r="2.18" gradientUnits="userSpaceOnUse"><stop offset="0.1"/><stop offset="0.11" stop-color="#030303"/><stop offset="0.28" stop-color="#252520"/><stop offset="0.45" stop-color="#403f37"/><stop offset="0.63" stop-color="#535147"/><stop offset="0.81" stop-color="#5e5c51"/><stop offset="1" stop-color="#626054"/></radialGradient><radialGradient id="radial-gradient-11" cx="370.69" cy="406.17" r="1.66" gradientUnits="userSpaceOnUse"><stop offset="0.1" stop-color="#396063"/><stop offset="0.12" stop-color="#375c5f"/><stop offset="0.29" stop-color="#233b3d"/><stop offset="0.46" stop-color="#142122"/><stop offset="0.63" stop-color="#090f0f"/><stop offset="0.81" stop-color="#020404"/><stop offset="1"/></radialGradient><radialGradient id="radial-gradient-12" cx="401.46" cy="432.62" r="10.28" gradientUnits="userSpaceOnUse"><stop offset="0.1" stop-color="#384430"/><stop offset="0.15" stop-color="#323d2b"/><stop offset="0.35" stop-color="#1c2218"/><stop offset="0.56" stop-color="#0c0f0b"/><stop offset="0.77" stop-color="#030403"/><stop offset="1"/></radialGradient><radialGradient id="radial-gradient-13" cx="413.35" cy="442.83" r="1.07" gradientUnits="userSpaceOnUse"><stop offset="0.1"/><stop offset="0.25" stop-color="#05111d"/><stop offset="0.43" stop-color="#0a2137"/><stop offset="0.61" stop-color="#0e2d4a"/><stop offset="0.8" stop-color="#103455"/><stop offset="1" stop-color="#113659"/></radialGradient></defs><title>fun</title><g class="cls-1"><g id="Layer_2" data-name="Layer 2"><g id="Background"><rect class="cls-2" x="0.5" y="0.5" width="599" height="599"/><path d="M599,1V599H1V1H599m1-1H0V600H600V0Z"/></g></g><g id="Layer_1" data-name="Layer 1"><rect class="cls-3" x="284" y="29" width="16" height="29"/><rect class="cls-3" x="284.5" y="85.39" width="15" height="28"/><path d="M299,85.89v27H285v-27h14m1-1H284v29h16v-29Z"/><rect class="cls-3" x="284" y="196.67" width="16" height="29"/><rect class="cls-3" x="284.5" y="141.28" width="15" height="28"/><path d="M299,141.78v27H285v-27h14m1-1H284v29h16v-29Z"/><rect class="cls-3" x="284" y="252.56" width="16" height="29"/><rect class="cls-3" x="284.5" y="420.72" width="15" height="28"/><path d="M299,421.22v27H285v-27h14m1-1H284v29h16v-29Z"/><rect class="cls-3" x="284" y="364.33" width="16" height="29"/><rect class="cls-3" x="284" y="308.44" width="16" height="29"/><rect class="cls-3" x="284" y="532" width="16" height="29"/><rect class="cls-3" x="284.5" y="476.61" width="15" height="28"/><path d="M299,477.11v27H285v-27h14m1-1H284v29h16v-29Z"/></g><g id="Circles"><path class="cls-3" d="M291.5,521A58.5,58.5,0,1,1,350,462.5,58.57,58.57,0,0,1,291.5,521Z"/><path d="M291.5,408A54.5,54.5,0,1,1,237,462.5,54.56,54.56,0,0,1,291.5,408m0-8A62.5,62.5,0,1,0,354,462.5,62.5,62.5,0,0,0,291.5,400Z"/><path class="cls-3" d="M291.5,186A58.5,58.5,0,1,1,350,127.5,58.57,58.57,0,0,1,291.5,186Z"/><path d="M291.5,73A54.5,54.5,0,1,1,237,127.5,54.56,54.56,0,0,1,291.5,73m0-8A62.5,62.5,0,1,0,354,127.5,62.5,62.5,0,0,0,291.5,65Z"/></g><g id="Fun_Elements"><circle class="cls-4" cx="95.5" cy="271.5" r="10.5"/><circle class="cls-5" cx="490" cy="94" r="9"/><circle class="cls-6" cx="482" cy="356" r="8"/><circle class="cls-7" cx="177" cy="44" r="10"/><circle class="cls-8" cx="185.5" cy="376.5" r="12.5"/><polygon class="cls-9" points="158.79 180.05 146.54 176.65 156.53 168.95 155.79 156.28 166.2 163.54 177.98 159.06 174.47 171.28 182.47 181.23 169.88 181.47 163.08 192.07 158.79 180.05"/><path d="M158,160.28l6.16,4.3,1.73,1.21,2-.75,7.06-2.68-2.12,7.38-.57,2,1.3,1.62,4.79,6-7.45.14-2.14,0-1.15,1.8-4,6.27L161,180.36l-.7-2-2-.56-7.4-2.06,6-4.61,1.67-1.29-.12-2.11-.44-7.5m-4.47-8,.92,15.73-12.31,9.49,15.1,4.2,5.31,14.88L171,183.45l15.6-.3-9.9-12.31L181,155.77l-14.53,5.53-12.92-9Z"/><polygon class="cls-10" points="434.79 247.14 423.79 246.59 430.91 238.2 428.03 227.57 438.21 231.75 447.43 225.73 446.6 236.7 455.18 243.6 444.49 246.21 440.57 256.5 434.79 247.14"/><path d="M445.13,229.62l-.44,5.89-.16,2.1,1.64,1.32,4.6,3.7L445,244l-2,.5-.75,2-2.1,5.52-3.1-5-1.11-1.79-2.1-.1-5.9-.29,3.82-4.5,1.36-1.6-.55-2L431,231l5.46,2.24,1.95.8,1.76-1.15,4.94-3.23m4.6-7.78L438,229.5l-13-5.31,3.67,13.52-9.06,10.69,14,.69L441,261l5-13.09,13.61-3.32-10.91-8.78,1-14Z"/><polygon class="cls-11" points="144.76 491.22 133.31 488.62 142.34 481.12 141.27 469.43 151.2 475.69 161.98 471.06 159.09 482.44 166.83 491.27 155.12 492.04 149.11 502.12 144.76 491.22"/><path d="M143.63,473.28l5.61,3.54,1.78,1.12,1.93-.83,6.1-2.61-1.63,6.43-.52,2,1.39,1.58,4.37,5L156,490l-2.1.14-1.08,1.81-3.39,5.7L147,491.45l-.78-2-2.05-.47-6.47-1.47,5.1-4.24,1.62-1.34-.19-2.09-.6-6.6m-4.72-7.71,1.34,14.68-11.33,9.42,14.37,3.26,5.46,13.69L156.29,494,171,493l-9.71-11.09,3.63-14.28-13.54,5.81-12.46-7.86Z"/><circle class="cls-12" cx="447" cy="471.75" r="64.41"/><circle class="cls-13" cx="363.27" cy="399.79" r="2.15"/><circle class="cls-14" cx="367" cy="403" r="2.15"/><circle class="cls-15" cx="370.2" cy="405.75" r="16.1"/><line class="cls-16" x1="431" y1="458" x2="367" y2="403"/><circle class="cls-17" cx="431" cy="458" r="42.94"/><circle class="cls-18" cx="431" cy="458" r="21.47"/><circle class="cls-19" cx="431" cy="458" r="17.89"/><polyline class="cls-20" points="431 458 430.39 460.72 431 458 431.61 455.28 431 458 428.28 457.39 431 458 433.72 458.61 431 458 426.24 479.34 431 458 435.76 436.66 431 458 409.66 453.24 431 458 452.34 462.76 431 458 433.04 545.39 431 458 428.96 370.61 431 458 343.61 460.04 431 458 518.39 455.96 431 458 427.83 463.09 431 458 434.17 452.91 431 458 425.91 454.83 431 458 436.09 461.17 431 458 409.4 480.57 431 458 452.6 435.43 431 458 408.43 436.4 431 458 453.57 479.6 431 458 401.58 479.42 431 458 460.42 436.58 431 458 409.58 428.58 431 458 452.42 487.42 431 458 426.03 474.86 431 458 435.97 441.14 431 458 414.14 453.03 431 458 447.86 462.97 431 458 422.95 465.36 431 458 439.05 450.64 431 458 423.64 449.95 431 458 438.36 466.05 431 458 407.11 495.13 431 458 454.89 420.87 431 458 393.87 434.11 431 458 468.13 481.89 431 458 428.61 460 431 458 433.39 456 431 458 429 455.61 431 458 433 460.39 431 458 398.49 515.08 431 458 463.51 400.92 431 458 373.92 425.49 431 458 488.08 490.51 431 458 430.93 458.07 431 458 431.07 457.93 431 458 430.93 457.93 431 458 431.07 458.07 431 458 440.3 496.75 431 458 421.7 419.25 431 458 392.25 467.3 431 458 469.75 448.7 431 458 436.31 478.36 431 458 425.69 437.64 431 458 410.64 463.31 431 458 451.36 452.69 431 458 420.63 473.37 431 458 441.37 442.63 431 458 415.63 447.63 431 458 446.37 468.37"/><circle class="cls-21" cx="367" cy="403" r="32.21"/><circle class="cls-22" cx="376.55" cy="411.2" r="8.23"/><circle class="cls-23" cx="442.83" cy="468.17" r="2.18"/><circle class="cls-24" cx="370.69" cy="406.17" r="1.66"/><circle class="cls-25" cx="401.46" cy="432.62" r="10.28"/><circle class="cls-26" cx="413.35" cy="442.83" r="1.07"/></g></g></svg>